<mxfile host="65bd71144e">
    <diagram id="kgpKYQtTHZ0yAKxKKP6v" name="Page-1">
        <mxGraphModel dx="788" dy="548" grid="1" gridSize="10" guides="1" tooltips="1" connect="1" arrows="1" fold="1" page="1" pageScale="1" pageWidth="850" pageHeight="1100" background="#ffffff" math="0" shadow="0">
            <root>
                <mxCell id="0"/>
                <mxCell id="1" parent="0"/>
                <mxCell id="7sLoJE0EAJ2kepvAm0Uv-5" value="Utilisateur" style="shape=umlLifeline;perimeter=lifelinePerimeter;container=1;collapsible=0;recursiveResize=0;rounded=0;shadow=0;strokeWidth=1;" parent="1" vertex="1">
                    <mxGeometry x="112" y="110" width="112" height="770" as="geometry"/>
                </mxCell>
                <mxCell id="7sLoJE0EAJ2kepvAm0Uv-40" value="alt" style="shape=umlFrame;whiteSpace=wrap;html=1;" parent="7sLoJE0EAJ2kepvAm0Uv-5" vertex="1">
                    <mxGeometry x="-14" y="536" width="640" height="140" as="geometry"/>
                </mxCell>
                <mxCell id="7sLoJE0EAJ2kepvAm0Uv-6" value="" style="points=[];perimeter=orthogonalPerimeter;rounded=0;shadow=0;strokeWidth=1;" parent="7sLoJE0EAJ2kepvAm0Uv-5" vertex="1">
                    <mxGeometry x="52" y="70" width="10" height="660" as="geometry"/>
                </mxCell>
                <mxCell id="7sLoJE0EAJ2kepvAm0Uv-44" value="" style="endArrow=none;dashed=1;html=1;rounded=0;entryX=1.003;entryY=0.529;entryDx=0;entryDy=0;entryPerimeter=0;strokeWidth=2;exitX=-0.002;exitY=0.536;exitDx=0;exitDy=0;exitPerimeter=0;" parent="7sLoJE0EAJ2kepvAm0Uv-5" source="7sLoJE0EAJ2kepvAm0Uv-40" target="7sLoJE0EAJ2kepvAm0Uv-40" edge="1">
                    <mxGeometry width="50" height="50" relative="1" as="geometry">
                        <mxPoint x="33" y="610" as="sourcePoint"/>
                        <mxPoint x="240" y="590" as="targetPoint"/>
                    </mxGeometry>
                </mxCell>
                <mxCell id="7sLoJE0EAJ2kepvAm0Uv-45" value="si les info est correct" style="text;html=1;strokeColor=none;fillColor=none;align=center;verticalAlign=middle;whiteSpace=wrap;rounded=0;labelBorderColor=default;" parent="7sLoJE0EAJ2kepvAm0Uv-5" vertex="1">
                    <mxGeometry x="46" y="529" width="145" height="30" as="geometry"/>
                </mxCell>
                <mxCell id="7sLoJE0EAJ2kepvAm0Uv-46" value="refuser la demande de reservation" style="edgeStyle=none;rounded=0;orthogonalLoop=1;jettySize=auto;html=1;entryX=0.8;entryY=0.647;entryDx=0;entryDy=0;entryPerimeter=0;endArrow=open;endFill=0;strokeWidth=1;dashed=1;" parent="7sLoJE0EAJ2kepvAm0Uv-5" edge="1">
                    <mxGeometry x="0.0335" y="-10" relative="1" as="geometry">
                        <mxPoint x="587" y="642" as="sourcePoint"/>
                        <mxPoint x="318" y="642" as="targetPoint"/>
                        <mxPoint as="offset"/>
                    </mxGeometry>
                </mxCell>
                <mxCell id="7sLoJE0EAJ2kepvAm0Uv-8" value="Interface" style="shape=umlLifeline;perimeter=lifelinePerimeter;container=1;collapsible=0;recursiveResize=0;rounded=0;shadow=0;strokeWidth=1;" parent="1" vertex="1">
                    <mxGeometry x="377" y="110" width="100" height="770" as="geometry"/>
                </mxCell>
                <mxCell id="7sLoJE0EAJ2kepvAm0Uv-9" value="" style="points=[];perimeter=orthogonalPerimeter;rounded=0;shadow=0;strokeWidth=1;" parent="7sLoJE0EAJ2kepvAm0Uv-8" vertex="1">
                    <mxGeometry x="45" y="70" width="10" height="110" as="geometry"/>
                </mxCell>
                <mxCell id="7sLoJE0EAJ2kepvAm0Uv-30" value="" style="points=[];perimeter=orthogonalPerimeter;rounded=0;shadow=0;strokeWidth=1;" parent="7sLoJE0EAJ2kepvAm0Uv-8" vertex="1">
                    <mxGeometry x="45" y="360" width="10" height="370" as="geometry"/>
                </mxCell>
                <mxCell id="7sLoJE0EAJ2kepvAm0Uv-35" value="Reponse avec les temps valider" style="edgeStyle=none;rounded=0;orthogonalLoop=1;jettySize=auto;html=1;endArrow=open;endFill=0;dashed=1;" parent="7sLoJE0EAJ2kepvAm0Uv-8" edge="1">
                    <mxGeometry x="0.0202" y="-10" relative="1" as="geometry">
                        <mxPoint x="327.5" y="430" as="sourcePoint"/>
                        <mxPoint x="55" y="430" as="targetPoint"/>
                        <mxPoint as="offset"/>
                    </mxGeometry>
                </mxCell>
                <mxCell id="7sLoJE0EAJ2kepvAm0Uv-49" value="afficher la billet de reservation" style="edgeStyle=none;rounded=0;orthogonalLoop=1;jettySize=auto;html=1;entryX=1.1;entryY=0.922;entryDx=0;entryDy=0;entryPerimeter=0;dashed=1;endArrow=open;endFill=0;strokeWidth=1;" parent="7sLoJE0EAJ2kepvAm0Uv-8" edge="1">
                    <mxGeometry x="-0.0081" y="-11" relative="1" as="geometry">
                        <mxPoint x="45" y="587.0000000000001" as="sourcePoint"/>
                        <mxPoint x="-201" y="587.0000000000001" as="targetPoint"/>
                        <mxPoint as="offset"/>
                    </mxGeometry>
                </mxCell>
                <mxCell id="7sLoJE0EAJ2kepvAm0Uv-47" value="Afficher error est les info est incorrect" style="edgeStyle=none;rounded=0;orthogonalLoop=1;jettySize=auto;html=1;entryX=1;entryY=0.825;entryDx=0;entryDy=0;entryPerimeter=0;dashed=1;endArrow=open;endFill=0;strokeWidth=1;" parent="7sLoJE0EAJ2kepvAm0Uv-8" edge="1">
                    <mxGeometry x="-0.0121" y="-10" relative="1" as="geometry">
                        <mxPoint x="45" y="658" as="sourcePoint"/>
                        <mxPoint x="-202" y="658" as="targetPoint"/>
                        <mxPoint as="offset"/>
                    </mxGeometry>
                </mxCell>
                <mxCell id="7sLoJE0EAJ2kepvAm0Uv-10" value="Entrer le serviceÂ " style="verticalAlign=bottom;endArrow=block;entryX=0;entryY=0;shadow=0;strokeWidth=1;" parent="1" edge="1">
                    <mxGeometry relative="1" as="geometry">
                        <mxPoint x="175" y="198.00000000000023" as="sourcePoint"/>
                        <mxPoint x="422" y="198.00000000000023" as="targetPoint"/>
                    </mxGeometry>
                </mxCell>
                <mxCell id="7sLoJE0EAJ2kepvAm0Uv-11" value="serveur" style="shape=umlLifeline;perimeter=lifelinePerimeter;container=1;collapsible=0;recursiveResize=0;rounded=0;shadow=0;strokeWidth=1;" parent="1" vertex="1">
                    <mxGeometry x="654" y="110" width="100" height="770" as="geometry"/>
                </mxCell>
                <mxCell id="7sLoJE0EAJ2kepvAm0Uv-12" value="" style="points=[];perimeter=orthogonalPerimeter;rounded=0;shadow=0;strokeWidth=1;" parent="7sLoJE0EAJ2kepvAm0Uv-11" vertex="1">
                    <mxGeometry x="45" y="90" width="10" height="70" as="geometry"/>
                </mxCell>
                <mxCell id="7sLoJE0EAJ2kepvAm0Uv-26" value="" style="points=[];perimeter=orthogonalPerimeter;rounded=0;shadow=0;strokeWidth=1;" parent="7sLoJE0EAJ2kepvAm0Uv-11" vertex="1">
                    <mxGeometry x="45" y="230" width="10" height="70" as="geometry"/>
                </mxCell>
                <mxCell id="7sLoJE0EAJ2kepvAm0Uv-34" style="edgeStyle=none;rounded=0;orthogonalLoop=1;jettySize=auto;html=1;endArrow=open;endFill=0;" parent="7sLoJE0EAJ2kepvAm0Uv-11" source="7sLoJE0EAJ2kepvAm0Uv-32" target="7sLoJE0EAJ2kepvAm0Uv-11" edge="1">
                    <mxGeometry relative="1" as="geometry"/>
                </mxCell>
                <mxCell id="7sLoJE0EAJ2kepvAm0Uv-32" value="" style="points=[];perimeter=orthogonalPerimeter;rounded=0;shadow=0;strokeWidth=1;" parent="7sLoJE0EAJ2kepvAm0Uv-11" vertex="1">
                    <mxGeometry x="45" y="380" width="10" height="60" as="geometry"/>
                </mxCell>
                <mxCell id="7sLoJE0EAJ2kepvAm0Uv-38" value="" style="points=[];perimeter=orthogonalPerimeter;rounded=0;shadow=0;strokeWidth=1;" parent="7sLoJE0EAJ2kepvAm0Uv-11" vertex="1">
                    <mxGeometry x="45" y="500" width="10" height="160" as="geometry"/>
                </mxCell>
                <mxCell id="7sLoJE0EAJ2kepvAm0Uv-13" value="demander les profiles" style="rounded=0;orthogonalLoop=1;jettySize=auto;html=1;" parent="1" target="7sLoJE0EAJ2kepvAm0Uv-11" edge="1">
                    <mxGeometry x="0.031" y="13" relative="1" as="geometry">
                        <mxPoint x="432" y="213" as="sourcePoint"/>
                        <mxPoint x="640" y="213" as="targetPoint"/>
                        <mxPoint as="offset"/>
                    </mxGeometry>
                </mxCell>
                <mxCell id="7sLoJE0EAJ2kepvAm0Uv-14" value="retourner les profiles qui il est demander" style="edgeStyle=none;rounded=0;orthogonalLoop=1;jettySize=auto;html=1;endArrow=open;endFill=0;dashed=1;" parent="1" source="7sLoJE0EAJ2kepvAm0Uv-11" edge="1">
                    <mxGeometry x="0.0166" y="-11" relative="1" as="geometry">
                        <mxPoint x="637" y="251" as="sourcePoint"/>
                        <mxPoint x="430" y="251" as="targetPoint"/>
                        <mxPoint as="offset"/>
                    </mxGeometry>
                </mxCell>
                <mxCell id="7sLoJE0EAJ2kepvAm0Uv-16" value="Afficher les profiles" style="edgeStyle=none;rounded=0;orthogonalLoop=1;jettySize=auto;html=1;dashed=1;endArrow=open;endFill=0;" parent="1" edge="1">
                    <mxGeometry x="-0.0121" y="-10" relative="1" as="geometry">
                        <mxPoint x="422" y="270" as="sourcePoint"/>
                        <mxPoint x="175" y="270" as="targetPoint"/>
                        <mxPoint as="offset"/>
                    </mxGeometry>
                </mxCell>
                <mxCell id="7sLoJE0EAJ2kepvAm0Uv-21" style="edgeStyle=none;rounded=0;orthogonalLoop=1;jettySize=auto;html=1;entryX=1;entryY=0.5;entryDx=0;entryDy=0;dashed=1;endArrow=open;endFill=0;strokeWidth=1;" parent="1" edge="1">
                    <mxGeometry relative="1" as="geometry">
                        <mxPoint x="680" y="290" as="sourcePoint"/>
                        <mxPoint x="680" y="290" as="targetPoint"/>
                    </mxGeometry>
                </mxCell>
                <mxCell id="7sLoJE0EAJ2kepvAm0Uv-23" value="&lt;span style=&quot;font-size: 36px&quot;&gt;Chercher et reserver&lt;/span&gt;" style="text;html=1;strokeColor=none;fillColor=none;align=center;verticalAlign=middle;whiteSpace=wrap;rounded=0;labelBorderColor=none;" parent="1" vertex="1">
                    <mxGeometry x="220" y="40" width="385" height="30" as="geometry"/>
                </mxCell>
                <mxCell id="7sLoJE0EAJ2kepvAm0Uv-27" value="Demander les info du&amp;nbsp;profile" style="edgeStyle=none;rounded=0;orthogonalLoop=1;jettySize=auto;html=1;" parent="1" edge="1">
                    <mxGeometry x="0.0166" y="9" relative="1" as="geometry">
                        <mxPoint x="432" y="358.5" as="sourcePoint"/>
                        <mxPoint x="703.5" y="358.5" as="targetPoint"/>
                        <mxPoint y="1" as="offset"/>
                    </mxGeometry>
                </mxCell>
                <mxCell id="7sLoJE0EAJ2kepvAm0Uv-29" value="Afficher les info de ce specific profile" style="edgeStyle=none;rounded=0;orthogonalLoop=1;jettySize=auto;html=1;dashed=1;endArrow=open;endFill=0;" parent="1" edge="1">
                    <mxGeometry y="-14" relative="1" as="geometry">
                        <mxPoint x="422" y="424.02" as="sourcePoint"/>
                        <mxPoint x="170" y="424" as="targetPoint"/>
                        <mxPoint as="offset"/>
                    </mxGeometry>
                </mxCell>
                <mxCell id="7sLoJE0EAJ2kepvAm0Uv-24" value="" style="points=[];perimeter=orthogonalPerimeter;rounded=0;shadow=0;strokeWidth=1;" parent="1" vertex="1">
                    <mxGeometry x="422" y="323" width="10" height="117" as="geometry"/>
                </mxCell>
                <mxCell id="7sLoJE0EAJ2kepvAm0Uv-25" value="Selectionner un profiles" style="rounded=0;orthogonalLoop=1;jettySize=auto;html=1;" parent="1" target="7sLoJE0EAJ2kepvAm0Uv-24" edge="1">
                    <mxGeometry x="0.0246" y="8" relative="1" as="geometry">
                        <mxPoint x="175" y="342.75300000000004" as="sourcePoint"/>
                        <mxPoint x="419" y="342.75300000000004" as="targetPoint"/>
                        <mxPoint as="offset"/>
                    </mxGeometry>
                </mxCell>
                <mxCell id="7sLoJE0EAJ2kepvAm0Uv-28" value="Reponse avec les info du profile" style="edgeStyle=none;rounded=0;orthogonalLoop=1;jettySize=auto;html=1;dashed=1;endArrow=open;endFill=0;" parent="1" edge="1">
                    <mxGeometry x="0.0202" y="-9" relative="1" as="geometry">
                        <mxPoint x="699" y="399" as="sourcePoint"/>
                        <mxPoint x="430" y="399" as="targetPoint"/>
                        <mxPoint as="offset"/>
                    </mxGeometry>
                </mxCell>
                <mxCell id="7sLoJE0EAJ2kepvAm0Uv-31" value="Selectioner pour reserver" style="edgeStyle=none;rounded=0;orthogonalLoop=1;jettySize=auto;html=1;" parent="1" edge="1">
                    <mxGeometry x="0.0121" y="11" relative="1" as="geometry">
                        <mxPoint x="175" y="486" as="sourcePoint"/>
                        <mxPoint x="422" y="486" as="targetPoint"/>
                        <mxPoint as="offset"/>
                    </mxGeometry>
                </mxCell>
                <mxCell id="7sLoJE0EAJ2kepvAm0Uv-33" value="Demander les temps libre" style="edgeStyle=none;rounded=0;orthogonalLoop=1;jettySize=auto;html=1;endArrow=block;endFill=1;" parent="1" edge="1">
                    <mxGeometry x="0.0166" y="11" relative="1" as="geometry">
                        <mxPoint x="432" y="505.5" as="sourcePoint"/>
                        <mxPoint x="703.5" y="505.5" as="targetPoint"/>
                        <mxPoint y="1" as="offset"/>
                    </mxGeometry>
                </mxCell>
                <mxCell id="7sLoJE0EAJ2kepvAm0Uv-36" value="Afficher la forme de reservation" style="edgeStyle=none;rounded=0;orthogonalLoop=1;jettySize=auto;html=1;dashed=1;endArrow=open;endFill=0;entryX=0.9;entryY=0.696;entryDx=0;entryDy=0;entryPerimeter=0;" parent="1" edge="1">
                    <mxGeometry x="-0.0161" y="-11" relative="1" as="geometry">
                        <mxPoint x="422" y="561" as="sourcePoint"/>
                        <mxPoint x="174" y="561" as="targetPoint"/>
                        <mxPoint as="offset"/>
                    </mxGeometry>
                </mxCell>
                <mxCell id="7sLoJE0EAJ2kepvAm0Uv-37" value="Entrer les info" style="edgeStyle=none;rounded=0;orthogonalLoop=1;jettySize=auto;html=1;entryX=0.1;entryY=0.771;entryDx=0;entryDy=0;entryPerimeter=0;endArrow=block;endFill=1;" parent="1" edge="1">
                    <mxGeometry x="-0.0535" y="11" relative="1" as="geometry">
                        <mxPoint x="175" y="600.6199999999999" as="sourcePoint"/>
                        <mxPoint x="423" y="600.6199999999999" as="targetPoint"/>
                        <mxPoint as="offset"/>
                    </mxGeometry>
                </mxCell>
                <mxCell id="7sLoJE0EAJ2kepvAm0Uv-39" value="valider les info et reserver" style="edgeStyle=none;rounded=0;orthogonalLoop=1;jettySize=auto;html=1;endArrow=block;endFill=1;" parent="1" edge="1">
                    <mxGeometry x="-0.0303" y="10" relative="1" as="geometry">
                        <mxPoint x="432" y="622.03" as="sourcePoint"/>
                        <mxPoint x="700" y="622" as="targetPoint"/>
                        <mxPoint as="offset"/>
                    </mxGeometry>
                </mxCell>
                <mxCell id="7sLoJE0EAJ2kepvAm0Uv-48" value="reserver avec success" style="edgeStyle=none;rounded=0;orthogonalLoop=1;jettySize=auto;html=1;dashed=1;endArrow=open;endFill=0;strokeWidth=1;" parent="1" edge="1">
                    <mxGeometry x="-0.0264" y="-11" relative="1" as="geometry">
                        <mxPoint x="699" y="680" as="sourcePoint"/>
                        <mxPoint x="430" y="680" as="targetPoint"/>
                        <mxPoint as="offset"/>
                    </mxGeometry>
                </mxCell>
                <mxCell id="7sLoJE0EAJ2kepvAm0Uv-50" value="Retourner a page d'acceuil" style="edgeStyle=none;rounded=0;orthogonalLoop=1;jettySize=auto;html=1;endArrow=block;endFill=1;strokeWidth=1;" parent="1" source="7sLoJE0EAJ2kepvAm0Uv-30" edge="1">
                    <mxGeometry y="-10" relative="1" as="geometry">
                        <mxPoint x="170" y="820" as="targetPoint"/>
                        <mxPoint as="offset"/>
                    </mxGeometry>
                </mxCell>
                <mxCell id="7sLoJE0EAJ2kepvAm0Uv-43" value="si les info est incorrect" style="text;html=1;strokeColor=none;fillColor=none;align=center;verticalAlign=middle;whiteSpace=wrap;rounded=0;labelBorderColor=default;" parent="1" vertex="1">
                    <mxGeometry x="164" y="714" width="145" height="30" as="geometry"/>
                </mxCell>
                <mxCell id="7sLoJE0EAJ2kepvAm0Uv-51" value="Retour pour entrer les information de la reservation autre fois" style="text;html=1;strokeColor=none;fillColor=none;align=center;verticalAlign=middle;whiteSpace=wrap;rounded=0;labelBorderColor=none;rotation=90;" parent="1" vertex="1">
                    <mxGeometry x="690" y="610" width="208" height="30" as="geometry"/>
                </mxCell>
                <mxCell id="7sLoJE0EAJ2kepvAm0Uv-53" style="edgeStyle=orthogonalEdgeStyle;rounded=0;orthogonalLoop=1;jettySize=auto;html=1;entryX=1.1;entryY=0.027;entryDx=0;entryDy=0;entryPerimeter=0;endArrow=block;endFill=1;strokeWidth=1;" parent="1" edge="1">
                    <mxGeometry relative="1" as="geometry">
                        <mxPoint x="739" y="756" as="sourcePoint"/>
                        <mxPoint x="432" y="475.99" as="targetPoint"/>
                        <Array as="points">
                            <mxPoint x="769" y="756"/>
                            <mxPoint x="769" y="476"/>
                        </Array>
                    </mxGeometry>
                </mxCell>
            </root>
        </mxGraphModel>
    </diagram>
</mxfile>